<?xml version="1.0" encoding="UTF-8" standalone="no"?>
<svg
   xmlns:dc="http://purl.org/dc/elements/1.1/"
   xmlns:cc="http://creativecommons.org/ns#"
   xmlns:rdf="http://www.w3.org/1999/02/22-rdf-syntax-ns#"
   xmlns:svg="http://www.w3.org/2000/svg"
   xmlns="http://www.w3.org/2000/svg"
   xmlns:sodipodi="http://sodipodi.sourceforge.net/DTD/sodipodi-0.dtd"
   xmlns:inkscape="http://www.inkscape.org/namespaces/inkscape"
   class="icon"
   height="552"
   viewBox="0 0 787 1104"
   version="1.1"
   id="svg4"
   sodipodi:docname="6ee30b118b.svg"
   width="787"
   inkscape:version="0.92.4 (5da689c313, 2019-01-14)">
  <metadata
     id="metadata10">
    <rdf:RDF>
      <cc:Work
         rdf:about="">
        <dc:format>image/svg+xml</dc:format>
        <dc:type
           rdf:resource="http://purl.org/dc/dcmitype/StillImage" />
        <dc:title></dc:title>
      </cc:Work>
    </rdf:RDF>
  </metadata>
  <defs
     id="defs8" />
  <sodipodi:namedview
     pagecolor="#ffffff"
     bordercolor="#666666"
     borderopacity="1"
     objecttolerance="10"
     gridtolerance="10"
     guidetolerance="10"
     inkscape:pageopacity="0"
     inkscape:pageshadow="2"
     inkscape:window-width="1920"
     inkscape:window-height="1001"
     id="namedview6"
     showgrid="false"
     inkscape:zoom="0.66081102"
     inkscape:cx="840.99693"
     inkscape:cy="145.67036"
     inkscape:window-x="-9"
     inkscape:window-y="-9"
     inkscape:window-maximized="1"
     inkscape:current-layer="svg4" />
  <path
     d="M 337.91085,734.2335 -326.87106,150.64204 c 0,-93.884094 71.047,-97.881295 71.047,-97.881295 h 403.43091 487.1715 399.99245 c 0,0 71.047,3.997201 71.047,97.881295 L 444.47426,734.2335 c 0,0 -6.86259,3.68201 -17.75104,7.17777 v 0.0143 c -11.99155,4.82816 -24.16938,6.40412 -35.51633,6.17489 -11.34686,0.22923 -23.52478,-1.34673 -35.51633,-6.17489 v -0.0143 c -10.91712,-3.51008 -17.77971,-7.17777 -17.77971,-7.17777 z m 53.28171,130.13112 C 366.90848,863.77722 332.00817,854.96619 292.23678,820.4957 216.118,754.52037 -326.87106,264.81301 -326.87106,264.81301 v 730.75723 c 0,0 0,81.19056 83.72634,81.19056 h 598.80661 71.047 595.36821 c 83.7407,0 83.7407,-81.19056 83.7407,-81.19056 V 264.81301 c 0,0 -539.55068,489.70736 -615.66938,555.68269 -39.77148,34.47049 -74.67179,43.29585 -98.95586,43.86892 z"
     id="path2"
     inkscape:connector-curvature="0"
     style="fill:#00aad4" />
</svg>
