<?xml version="1.0" encoding="UTF-8" standalone="no"?>
<svg
   xmlns:dc="http://purl.org/dc/elements/1.1/"
   xmlns:cc="http://creativecommons.org/ns#"
   xmlns:rdf="http://www.w3.org/1999/02/22-rdf-syntax-ns#"
   xmlns:svg="http://www.w3.org/2000/svg"
   xmlns="http://www.w3.org/2000/svg"
   id="svg8"
   version="1.1"
   viewBox="0 0 100 100"
   height="100mm"
   width="100mm">
  <defs
     id="defs2" />
  <metadata
     id="metadata5">
    <rdf:RDF>
      <cc:Work
         rdf:about="">
        <dc:format>image/svg+xml</dc:format>
        <dc:type
           rdf:resource="http://purl.org/dc/dcmitype/StillImage" />
        <dc:title></dc:title>
      </cc:Work>
    </rdf:RDF>
  </metadata>
  <g
     transform="translate(0,-197)"
     id="layer1">
    <circle
       r="49.378044"
       cy="247.35469"
       cx="49.912586"
       id="path819"
       style="opacity:1;fill:#d40f41;fill-opacity:1;stroke:none;stroke-width:0.26499999;stroke-miterlimit:4;stroke-dasharray:none;stroke-opacity:1" />
    <path
       id="path995"
       d="m 84.323903,298.21526 c -0.226898,0.41073 -0.480684,0.85514 -0.789101,1.34049 -0.308417,0.48535 -0.671483,1.01146 -1.117243,1.58492 -0.445759,0.57345 -0.974415,1.19461 -1.613339,1.86965 -0.638924,0.67505 -1.388435,1.40406 -2.276345,2.19418 -1.775823,1.58024 -4.227002,3.71878 -6.840411,5.92729 -2.613408,2.20851 -5.388956,4.48681 -7.813992,6.3469 -1.726576,1.28844 -3.30776,2.42842 -4.904095,3.51451 -1.596334,1.08609 -3.20794,2.11828 -4.996076,3.19102 -0.429668,0.24006 -0.85456,0.45541 -1.275893,0.64286 -0.42133,0.18745 -0.838731,0.34735 -1.254186,0.47594 -0.415454,0.12858 -0.828717,0.22592 -1.240752,0.28938 -0.412033,0.0635 -0.82296,0.0927 -1.234033,0.0848 -0.917641,-0.0312 -1.8302,-0.1104 -2.721279,-0.21807 -0.89108,-0.10767 -1.760961,-0.24387 -2.592607,-0.38757 -2.422769,-0.46434 -4.877912,-1.01063 -7.333404,-1.62523 -2.455489,-0.6146 -4.911238,-1.29729 -7.333919,-2.03502 -2.422681,-0.73772 -4.812691,-1.53048 -7.137032,-2.36419 -2.32434,-0.83371 -4.58279,-1.70815 -6.743258,-2.6107 -1.508628,-0.66198 -3.056086,-1.36766 -4.541841,-2.13371 -0.742878,-0.38304 -1.470263,-0.78146 -2.1698939,-1.19683 -0.6996306,-0.41537 -1.3716135,-0.84774 -2.0029784,-1.29966 0,0 7.1539123,36.2073 7.7271773,38.94956 0.06771,0.32543 0.16725,0.63625 0.294039,0.93017 0.126788,0.29392 0.281094,0.57093 0.459403,0.82837 0.178309,0.25745 0.380276,0.49505 0.602547,0.71107 0.222272,0.21602 0.464793,0.41018 0.723471,0.57981 0.258677,0.16964 0.533612,0.31476 0.821138,0.43305 0.287526,0.11829 0.587768,0.20983 0.896586,0.27182 0.308818,0.062 0.626227,0.0949 0.94878,0.0956 0.322552,7.9e-4 0.650021,-0.0306 0.978751,-0.0961 l 69.28776,-13.80019 c 0.328732,-0.0655 0.64288,-0.16172 0.939478,-0.28577 0.2966,-0.12405 0.575601,-0.27596 0.835091,-0.45113 0.25949,-0.17518 0.499351,-0.37388 0.716753,-0.59273 0.217401,-0.21886 0.412573,-0.45755 0.582909,-0.71262 0.170336,-0.25508 0.315791,-0.52644 0.434084,-0.81029 0.118289,-0.28384 0.209515,-0.58005 0.270782,-0.88522 0.06127,-0.30516 0.09272,-0.61941 0.09198,-0.93844 -7.94e-4,-0.31902 -0.03409,-0.64298 -0.101804,-0.96842 z"
       style="opacity:1;fill:#ffffff;fill-opacity:1;stroke:none;stroke-width:0.26499999;stroke-miterlimit:4;stroke-dasharray:none;stroke-opacity:1" />
    <path
       id="path821"
       d="m 29.223655,238.49991 v 13.07264 h 11.287976 v 33.54329 h 13.499426 v -33.54329 h 11.259417 l 1.685683,-13.07264 H 54.092704 c 0.01634,-2.28613 -0.339005,-9.00556 0.444811,-11.87955 1.828902,-3.85376 9.235053,-2.9155 12.874627,-2.77626 v -11.74977 c 0,0 -14.670872,-2.65259 -20.418851,2.44221 0,0 -5.747979,3.00463 -6.531797,12.47572 l 0.05014,11.48765 z"
       style="opacity:1;fill:#ffffff;stroke:none;stroke-width:0.26458332px;stroke-linecap:butt;stroke-linejoin:miter;stroke-opacity:1" />
  </g>
</svg>
