<?xml version="1.0" encoding="UTF-8" standalone="no"?>
<!-- Created with Inkscape (http://www.inkscape.org/) -->

<svg
   xmlns:dc="http://purl.org/dc/elements/1.1/"
   xmlns:cc="http://creativecommons.org/ns#"
   xmlns:rdf="http://www.w3.org/1999/02/22-rdf-syntax-ns#"
   xmlns:svg="http://www.w3.org/2000/svg"
   xmlns="http://www.w3.org/2000/svg"
   xmlns:sodipodi="http://sodipodi.sourceforge.net/DTD/sodipodi-0.dtd"
   xmlns:inkscape="http://www.inkscape.org/namespaces/inkscape"
   width="100mm"
   height="100mm"
   viewBox="0 0 100 100"
   version="1.1"
   id="svg8"
   inkscape:version="0.92.4 (5da689c313, 2019-01-14)"
   sodipodi:docname="newsletters.svg">
  <defs
     id="defs2" />
  <sodipodi:namedview
     id="base"
     pagecolor="#ffffff"
     bordercolor="#666666"
     borderopacity="1.0"
     inkscape:pageopacity="0.0"
     inkscape:pageshadow="2"
     inkscape:zoom="1.4"
     inkscape:cx="72.315884"
     inkscape:cy="197.44408"
     inkscape:document-units="mm"
     inkscape:current-layer="layer1"
     showgrid="false"
     inkscape:window-width="1920"
     inkscape:window-height="1001"
     inkscape:window-x="-9"
     inkscape:window-y="-9"
     inkscape:window-maximized="1" />
  <metadata
     id="metadata5">
    <rdf:RDF>
      <cc:Work
         rdf:about="">
        <dc:format>image/svg+xml</dc:format>
        <dc:type
           rdf:resource="http://purl.org/dc/dcmitype/StillImage" />
        <dc:title></dc:title>
      </cc:Work>
    </rdf:RDF>
  </metadata>
  <g
     inkscape:label="Layer 1"
     inkscape:groupmode="layer"
     id="layer1"
     transform="translate(0,-197)">
    <circle
       style="opacity:1;fill:#d40f41;fill-opacity:1;stroke:none;stroke-width:0.26499999;stroke-miterlimit:4;stroke-dasharray:none;stroke-opacity:1"
       id="path819"
       cx="49.912586"
       cy="247.35469"
       r="49.378044" />
    <path
       inkscape:connector-curvature="0"
       style="opacity:1;fill:#ffffff;fill-opacity:1;stroke:none;stroke-width:0.26499999;stroke-miterlimit:4;stroke-dasharray:none;stroke-opacity:1"
       d="m 78.362125,228.80258 c -0.186813,0.33817 -0.395763,0.70406 -0.649693,1.10367 -0.25393,0.3996 -0.552854,0.83277 -0.919863,1.30491 -0.367008,0.47215 -0.802268,0.98357 -1.328316,1.53935 -0.526047,0.55579 -1.143144,1.15601 -1.87419,1.80654 -1.462094,1.30107 -3.480231,3.0618 -5.631937,4.88014 -2.151706,1.81834 -4.436907,3.69414 -6.433519,5.22561 -1.421548,1.06081 -2.723389,1.9994 -4.037704,2.89361 -1.314315,0.89422 -2.641204,1.74405 -4.113436,2.62727 -0.353759,0.19765 -0.703587,0.37496 -1.050485,0.52929 -0.346895,0.15434 -0.690555,0.28599 -1.032613,0.39186 -0.342057,0.10586 -0.68231,0.18601 -1.021552,0.23826 -0.33924,0.0523 -0.67757,0.0763 -1.01602,0.0698 -0.755524,-0.0257 -1.506865,-0.0909 -2.240519,-0.17954 -0.733656,-0.0887 -1.449858,-0.20079 -2.13458,-0.3191 -1.994746,-0.38231 -4.016147,-0.83208 -6.037835,-1.33811 -2.021685,-0.50602 -4.043585,-1.0681 -6.038259,-1.67549 -1.994673,-0.60739 -3.962448,-1.2601 -5.876155,-1.94652 -1.913706,-0.68642 -3.773163,-1.40638 -5.551948,-2.14948 -1.242103,-0.54503 -2.516177,-1.12604 -3.739448,-1.75675 -0.611636,-0.31537 -1.210516,-0.6434 -1.786545,-0.98539 -0.576029,-0.34199 -1.129295,-0.69797 -1.649119,-1.07005 0,0 5.890053,29.81067 6.362041,32.06846 0.05575,0.26794 0.137703,0.52385 0.242092,0.76584 0.104389,0.242 0.231434,0.47007 0.378242,0.68203 0.146808,0.21196 0.313094,0.40759 0.496097,0.58544 0.183004,0.17786 0.382679,0.33772 0.595657,0.47738 0.212978,0.13967 0.439341,0.25915 0.676071,0.35654 0.236729,0.0974 0.483929,0.17276 0.738189,0.2238 0.25426,0.051 0.515593,0.0781 0.781162,0.0787 0.265567,6.5e-4 0.535184,-0.0252 0.805838,-0.0791 L 82.32069,263.7894 c 0.270656,-0.0539 0.529304,-0.13315 0.773503,-0.23529 0.244201,-0.10213 0.473911,-0.2272 0.687558,-0.37143 0.213647,-0.14423 0.411132,-0.30783 0.590127,-0.48801 0.178993,-0.1802 0.339685,-0.37672 0.479928,-0.58673 0.140243,-0.21001 0.260001,-0.43343 0.357396,-0.66713 0.09739,-0.2337 0.1725,-0.47758 0.222944,-0.72884 0.05044,-0.25124 0.07634,-0.50998 0.07573,-0.77264 -6.54e-4,-0.26266 -0.02807,-0.52939 -0.08382,-0.79734 z"
       id="path995" />
    <path
       style="opacity:1;fill:#ffffff;fill-opacity:1;stroke:none;stroke-width:0.26499996;stroke-miterlimit:4;stroke-dasharray:none;stroke-opacity:1"
       d="m 13.586318,236.19264 c 0.04782,0.63972 0.167042,1.18981 0.612267,1.64329 2.79513,2.23115 6.508414,3.54409 9.629354,4.6868 1.84922,0.67144 3.843341,1.33691 5.884817,1.9675 2.041476,0.63059 4.130581,1.2261 6.169327,1.75725 4.286233,1.01804 8.647302,2.1734 12.827633,2.31922 0.589429,0.0131 1.105278,-0.008 1.5356,-0.0678 2.097883,-0.7545 4.197579,-2.17177 5.966374,-3.32856 3.382085,-2.24138 6.604761,-4.57891 9.583833,-6.90232 3.929695,-3.25445 8.731603,-6.93719 11.408115,-10.82073 0.564185,-0.7458 0.669538,-1.31803 0.489018,-2.12413 -0.440483,-1.98672 -2.516901,-3.26435 -4.655358,-2.86464 L 16.69586,232.9893 c -1.664481,0.62051 -2.922201,1.7988 -3.109542,3.20334 z"
       id="rect907"
       inkscape:connector-curvature="0"
       sodipodi:nodetypes="cccccccccccscc" />
  </g>
</svg>
