<?xml version="1.0" encoding="UTF-8" standalone="no"?>
<svg
   xmlns:dc="http://purl.org/dc/elements/1.1/"
   xmlns:cc="http://creativecommons.org/ns#"
   xmlns:rdf="http://www.w3.org/1999/02/22-rdf-syntax-ns#"
   xmlns:svg="http://www.w3.org/2000/svg"
   xmlns="http://www.w3.org/2000/svg"
   xmlns:sodipodi="http://sodipodi.sourceforge.net/DTD/sodipodi-0.dtd"
   xmlns:inkscape="http://www.inkscape.org/namespaces/inkscape"
   class="icon"
   height="512"
   viewBox="0 0 282 1024"
   version="1.1"
   id="svg4"
   sodipodi:docname="3865468b9e.svg"
   width="282"
   inkscape:version="0.92.4 (5da689c313, 2019-01-14)">
  <metadata
     id="metadata10">
    <rdf:RDF>
      <cc:Work
         rdf:about="">
        <dc:format>image/svg+xml</dc:format>
        <dc:type
           rdf:resource="http://purl.org/dc/dcmitype/StillImage" />
        <dc:title></dc:title>
      </cc:Work>
    </rdf:RDF>
  </metadata>
  <defs
     id="defs8" />
  <sodipodi:namedview
     pagecolor="#ffffff"
     bordercolor="#666666"
     borderopacity="1"
     objecttolerance="10"
     gridtolerance="10"
     guidetolerance="10"
     inkscape:pageopacity="0"
     inkscape:pageshadow="2"
     inkscape:window-width="1920"
     inkscape:window-height="1001"
     id="namedview6"
     showgrid="false"
     inkscape:zoom="0.93636406"
     inkscape:cx="189.14789"
     inkscape:cy="288.13144"
     inkscape:window-x="-9"
     inkscape:window-y="-9"
     inkscape:window-maximized="1"
     inkscape:current-layer="svg4" />
  <path
     d="M 322.20148,33.810305 H -32.260058 c -43.32308,0 -80.738462,35.446154 -80.738462,80.738455 v 803.44616 c 0,43.32307 35.446152,80.73846 80.738462,80.73846 H 322.20148 c 43.32308,0 80.73846,-35.44615 80.73846,-80.73846 V 114.54876 c 0,-45.292302 -37.41538,-80.738455 -80.73846,-80.738455 z M 95.739942,98.79492 h 96.492308 c 9.84615,0 15.75384,7.87692 15.75384,15.75384 0,9.84616 -7.87692,15.75385 -15.75384,15.75385 H 95.739942 c -7.87692,0 -15.75385,-7.87692 -15.75385,-15.75385 0,-9.84615 7.87693,-15.75384 15.75385,-15.75384 z m 49.230768,868.43077 c -27.56923,0 -47.261538,-21.66154 -47.261538,-47.26154 0,-27.56923 21.661538,-49.23077 47.261538,-49.23077 27.56923,0 49.23077,21.66154 49.23077,49.23077 0,25.6 -21.66154,47.26154 -49.23077,47.26154 z M 369.46302,837.25645 H -79.521596 V 195.28722 H 371.43225 v 641.96923 z m 0,0"
     id="path2"
     inkscape:connector-curvature="0"
     style="fill:#d4aa00" />
</svg>
