<?xml version="1.0" encoding="UTF-8" standalone="no"?>
<svg
   xmlns:dc="http://purl.org/dc/elements/1.1/"
   xmlns:cc="http://creativecommons.org/ns#"
   xmlns:rdf="http://www.w3.org/1999/02/22-rdf-syntax-ns#"
   xmlns:svg="http://www.w3.org/2000/svg"
   xmlns="http://www.w3.org/2000/svg"
   id="svg8"
   version="1.1"
   viewBox="0 0 100 100"
   height="100mm"
   width="100mm">
  <defs
     id="defs2" />
  <metadata
     id="metadata5">
    <rdf:RDF>
      <cc:Work
         rdf:about="">
        <dc:format>image/svg+xml</dc:format>
        <dc:type
           rdf:resource="http://purl.org/dc/dcmitype/StillImage" />
        <dc:title></dc:title>
      </cc:Work>
    </rdf:RDF>
  </metadata>
  <g
     transform="translate(0,-197)"
     id="layer1">
    <circle
       r="49.378044"
       cy="247.35469"
       cx="49.912586"
       id="path819"
       style="opacity:1;fill:#d40f41;fill-opacity:1;stroke:none;stroke-width:0.26499999;stroke-miterlimit:4;stroke-dasharray:none;stroke-opacity:1" />
    <g
       transform="translate(-0.73622129,0.05855555)"
       id="g850">
      <path
         style="opacity:1;fill:#ffffff;fill-opacity:1;stroke:none;stroke-width:0.26499999;stroke-miterlimit:4;stroke-dasharray:none;stroke-opacity:1"
         d="m 45.829612,211.3884 h 9.638392 c 1.361092,0 2.489133,1.09613 2.456845,2.45684 l -1.5875,66.90179 c -0.03229,1.36071 -1.095753,2.45684 -2.456845,2.45684 h -6.463392 c -1.361093,0 -2.424558,-1.09613 -2.456846,-2.45684 l -1.5875,-66.90179 c -0.03229,-1.36071 1.095753,-2.45684 2.456846,-2.45684 z"
         id="rect842" />
      <path
         style="opacity:1;fill:#ffffff;fill-opacity:1;stroke:none;stroke-width:0.26499999;stroke-miterlimit:4;stroke-dasharray:none;stroke-opacity:1"
         d="m 26.83631,231.9881 h 47.624995 c 1.77989,0 3.459576,1.4501 3.212798,3.2128 l -0.529167,3.77976 c -0.246778,1.7627 -1.432908,3.2128 -3.212798,3.2128 H 27.365477 c -1.77989,0 -2.96602,-1.4501 -3.212798,-3.2128 l -0.529167,-3.77976 c -0.246778,-1.7627 1.432908,-3.2128 3.212798,-3.2128 z"
         id="rect845" />
    </g>
  </g>
</svg>
